<?xml version="1.0" standalone="no"?>
<!DOCTYPE svg PUBLIC "-//W3C//DTD SVG 1.1//EN" "http://www.w3.org/Graphics/SVG/1.1/DTD/svg11.dtd" >
<svg xmlns="http://www.w3.org/2000/svg">
<metadata></metadata>
<defs>
<font id="cheriregular" horiz-adv-x="1167" >
<font-face units-per-em="2048" ascent="1638" descent="-410" />
<missing-glyph horiz-adv-x="618" />
<glyph horiz-adv-x="2048" />
<glyph horiz-adv-x="2048" />
<glyph unicode="&#xd;" horiz-adv-x="618" />
<glyph unicode=" "  horiz-adv-x="618" />
<glyph unicode="&#x09;" horiz-adv-x="618" />
<glyph unicode="&#xa0;" horiz-adv-x="618" />
<glyph unicode="!" horiz-adv-x="690" d="M213 1458l434 35l19 -973l-414 -22zM233 285q0 55 29 110q39 39 86 39q68 0 131 -82q45 102 113 103q32 0 63 -27q57 -43 58 -125q0 -166 -215 -303q-264 113 -265 285z" />
<glyph unicode="&#x22;" d="M229 772q0 125 88 205q74 61 164 61q111 0 213 -102q102 100 213 100q90 0 164 -61q88 -80 88 -203q0 -193 -205 -375l2 -2q0 -33 -23.5 -55.5t-55.5 -22.5q-10 0 -19 2q-74 -53 -164 -100h-2q-231 121 -354 279q-109 139 -109 274zM385 762l31 -266l92 18l-21 115l103 8 l-6 76l-115 -15q-14 47 -14 82q0 51 34 56q43 4 43 -64q0 -20 -4 -41l88 12q-10 193 -131 179q-117 -16 -100 -160zM561 510q0 -43 43 -43t43 43t-43 43t-43 -43zM680 649l33 -266l92 18l-23 115l103 10l-6 74l-113 -14q-14 47 -14 82q0 51 32 55q43 6 43 -64q0 -20 -4 -41 l88 13q-8 195 -131 178q-117 -16 -100 -160zM834 395q0 -43 43 -43t43 43t-43 43t-43 -43z" />
<glyph unicode="#" horiz-adv-x="1288" d="M227 776q0 145 111 246q92 80 205 80q111 0 213 -84q102 82 211 82q115 0 207 -80q113 -102 112 -260q0 -221 -211 -393q-8 -47 -47 -79t-90 -32q-63 -45 -168 -98h-31q-248 129 -385 301q-127 162 -127 317zM291 772q0 -135 108 -274q123 -158 355 -279h2q90 47 164 100 q8 -2 18 -2q33 0 56.5 22.5t23.5 55.5l-2 2q205 182 205 375q0 123 -88 203q-74 61 -164 61q-111 0 -213 -100q-102 102 -213 102q-90 0 -164 -61q-88 -80 -88 -205zM446 762q-16 143 101 160q121 14 131 -179l-88 -12q4 20 4 41q0 68 -43 64q-35 -4 -35 -56q0 -35 14 -82 l115 15l6 -76l-102 -8l20 -115l-92 -18zM623 510q0 43 43 43t43 -43t-43 -43t-43 43zM741 649q-16 143 101 160q123 17 131 -178l-88 -13q4 20 4 41q0 70 -43 64q-33 -4 -33 -55q0 -35 14 -82l113 14l6 -74l-102 -10l22 -115l-92 -18zM895 395q0 43 43 43t43 -43t-43 -43 t-43 43z" />
<glyph unicode="$" d="M229 772q0 125 88 205q74 61 164 61q111 0 213 -102q102 100 213 100q90 0 164 -61q88 -80 88 -203q0 -193 -205 -375l2 -2q0 -33 -23.5 -55.5t-55.5 -22.5q-10 0 -19 2q-74 -53 -164 -100h-2q-231 121 -354 279q-109 139 -109 274zM385 762l31 -266l92 18l-21 115l103 8 l-6 76l-115 -15q-14 47 -14 82q0 51 34 56q43 4 43 -64q0 -20 -4 -41l88 12q-10 193 -131 179q-117 -16 -100 -160zM561 510q0 -43 43 -43t43 43t-43 43t-43 -43zM680 649l33 -266l92 18l-23 115l103 10l-6 74l-113 -14q-14 47 -14 82q0 51 32 55q43 6 43 -64q0 -20 -4 -41 l88 13q-8 195 -131 178q-117 -16 -100 -160zM834 395q0 -43 43 -43t43 43t-43 43t-43 -43z" />
<glyph unicode="%" horiz-adv-x="1288" d="M227 776q0 145 111 246q92 80 205 80q111 0 213 -84q102 82 211 82q115 0 207 -80q113 -102 112 -260q0 -221 -211 -393q-8 -47 -47 -79t-90 -32q-63 -45 -168 -98h-31q-248 129 -385 301q-127 162 -127 317zM291 772q0 -135 108 -274q123 -158 355 -279h2q90 47 164 100 q8 -2 18 -2q33 0 56.5 22.5t23.5 55.5l-2 2q205 182 205 375q0 123 -88 203q-74 61 -164 61q-111 0 -213 -100q-102 102 -213 102q-90 0 -164 -61q-88 -80 -88 -205zM446 762q-16 143 101 160q121 14 131 -179l-88 -12q4 20 4 41q0 68 -43 64q-35 -4 -35 -56q0 -35 14 -82 l115 15l6 -76l-102 -8l20 -115l-92 -18zM623 510q0 43 43 43t43 -43t-43 -43t-43 43zM741 649q-16 143 101 160q123 17 131 -178l-88 -13q4 20 4 41q0 70 -43 64q-33 -4 -33 -55q0 -35 14 -82l113 14l6 -74l-102 -10l22 -115l-92 -18zM895 395q0 43 43 43t43 -43t-43 -43 t-43 43z" />
<glyph unicode="&#x26;" d="M229 772q0 125 88 205q74 61 164 61q111 0 213 -102q102 100 213 100q90 0 164 -61q88 -80 88 -203q0 -193 -205 -375l2 -2q0 -33 -23.5 -55.5t-55.5 -22.5q-10 0 -19 2q-74 -53 -164 -100h-2q-231 121 -354 279q-109 139 -109 274zM385 762l31 -266l92 18l-21 115l103 8 l-6 76l-115 -15q-14 47 -14 82q0 51 34 56q43 4 43 -64q0 -20 -4 -41l88 12q-10 193 -131 179q-117 -16 -100 -160zM561 510q0 -43 43 -43t43 43t-43 43t-43 -43zM680 649l33 -266l92 18l-23 115l103 10l-6 74l-113 -14q-14 47 -14 82q0 51 32 55q43 6 43 -64q0 -20 -4 -41 l88 13q-8 195 -131 178q-117 -16 -100 -160zM834 395q0 -43 43 -43t43 43t-43 43t-43 -43z" />
<glyph unicode="'" horiz-adv-x="655" d="M211 1196q0 59 35 119q37 33 84 33q70 0 131 -88q49 96 112 96q37 0 68 -29q63 -59 64 -131q0 -152 -244 -289q-250 123 -250 289z" />
<glyph unicode="(" horiz-adv-x="1288" d="M227 776q0 145 111 246q92 80 205 80q111 0 213 -84q102 82 211 82q115 0 207 -80q113 -102 112 -260q0 -221 -211 -393q-8 -47 -47 -79t-90 -32q-63 -45 -168 -98h-31q-248 129 -385 301q-127 162 -127 317zM291 772q0 -135 108 -274q123 -158 355 -279h2q90 47 164 100 q8 -2 18 -2q33 0 56.5 22.5t23.5 55.5l-2 2q205 182 205 375q0 123 -88 203q-74 61 -164 61q-111 0 -213 -100q-102 102 -213 102q-90 0 -164 -61q-88 -80 -88 -205zM446 762q-16 143 101 160q121 14 131 -179l-88 -12q4 20 4 41q0 68 -43 64q-35 -4 -35 -56q0 -35 14 -82 l115 15l6 -76l-102 -8l20 -115l-92 -18zM623 510q0 43 43 43t43 -43t-43 -43t-43 43zM741 649q-16 143 101 160q123 17 131 -178l-88 -13q4 20 4 41q0 70 -43 64q-33 -4 -33 -55q0 -35 14 -82l113 14l6 -74l-102 -10l22 -115l-92 -18zM895 395q0 43 43 43t43 -43t-43 -43 t-43 43z" />
<glyph unicode=")" d="M229 772q0 125 88 205q74 61 164 61q111 0 213 -102q102 100 213 100q90 0 164 -61q88 -80 88 -203q0 -193 -205 -375l2 -2q0 -33 -23.5 -55.5t-55.5 -22.5q-10 0 -19 2q-74 -53 -164 -100h-2q-231 121 -354 279q-109 139 -109 274zM385 762l31 -266l92 18l-21 115l103 8 l-6 76l-115 -15q-14 47 -14 82q0 51 34 56q43 4 43 -64q0 -20 -4 -41l88 12q-10 193 -131 179q-117 -16 -100 -160zM561 510q0 -43 43 -43t43 43t-43 43t-43 -43zM680 649l33 -266l92 18l-23 115l103 10l-6 74l-113 -14q-14 47 -14 82q0 51 32 55q43 6 43 -64q0 -20 -4 -41 l88 13q-8 195 -131 178q-117 -16 -100 -160zM834 395q0 -43 43 -43t43 43t-43 43t-43 -43z" />
<glyph unicode="*" horiz-adv-x="1288" d="M227 776q0 145 111 246q92 80 205 80q111 0 213 -84q102 82 211 82q115 0 207 -80q113 -102 112 -260q0 -221 -211 -393q-8 -47 -47 -79t-90 -32q-63 -45 -168 -98h-31q-248 129 -385 301q-127 162 -127 317zM291 772q0 -135 108 -274q123 -158 355 -279h2q90 47 164 100 q8 -2 18 -2q33 0 56.5 22.5t23.5 55.5l-2 2q205 182 205 375q0 123 -88 203q-74 61 -164 61q-111 0 -213 -100q-102 102 -213 102q-90 0 -164 -61q-88 -80 -88 -205zM446 762q-16 143 101 160q121 14 131 -179l-88 -12q4 20 4 41q0 68 -43 64q-35 -4 -35 -56q0 -35 14 -82 l115 15l6 -76l-102 -8l20 -115l-92 -18zM623 510q0 43 43 43t43 -43t-43 -43t-43 43zM741 649q-16 143 101 160q123 17 131 -178l-88 -13q4 20 4 41q0 70 -43 64q-33 -4 -33 -55q0 -35 14 -82l113 14l6 -74l-102 -10l22 -115l-92 -18zM895 395q0 43 43 43t43 -43t-43 -43 t-43 43z" />
<glyph unicode="+" d="M229 772q0 125 88 205q74 61 164 61q111 0 213 -102q102 100 213 100q90 0 164 -61q88 -80 88 -203q0 -193 -205 -375l2 -2q0 -33 -23.5 -55.5t-55.5 -22.5q-10 0 -19 2q-74 -53 -164 -100h-2q-231 121 -354 279q-109 139 -109 274zM385 762l31 -266l92 18l-21 115l103 8 l-6 76l-115 -15q-14 47 -14 82q0 51 34 56q43 4 43 -64q0 -20 -4 -41l88 12q-10 193 -131 179q-117 -16 -100 -160zM561 510q0 -43 43 -43t43 43t-43 43t-43 -43zM680 649l33 -266l92 18l-23 115l103 10l-6 74l-113 -14q-14 47 -14 82q0 51 32 55q43 6 43 -64q0 -20 -4 -41 l88 13q-8 195 -131 178q-117 -16 -100 -160zM834 395q0 -43 43 -43t43 43t-43 43t-43 -43z" />
<glyph unicode="," horiz-adv-x="702" d="M233 285q0 55 29 110q39 39 86 39q68 0 131 -82q45 102 113 103q32 0 63 -27q57 -43 58 -125q0 -166 -215 -303q-264 113 -265 285z" />
<glyph unicode="-" horiz-adv-x="655" d="M182 842q0 68 49 133q35 27 76 26q76 0 133 -102q53 84 113 84q41 0 74 -37q49 -57 49 -121q0 -158 -273 -276q-221 135 -221 293z" />
<glyph unicode="." horiz-adv-x="702" d="M233 285q0 55 29 110q39 39 86 39q68 0 131 -82q45 102 113 103q32 0 63 -27q57 -43 58 -125q0 -166 -215 -303q-264 113 -265 285z" />
<glyph unicode="/" horiz-adv-x="1288" d="M227 776q0 145 111 246q92 80 205 80q111 0 213 -84q102 82 211 82q115 0 207 -80q113 -102 112 -260q0 -221 -211 -393q-8 -47 -47 -79t-90 -32q-63 -45 -168 -98h-31q-248 129 -385 301q-127 162 -127 317zM291 772q0 -135 108 -274q123 -158 355 -279h2q90 47 164 100 q8 -2 18 -2q33 0 56.5 22.5t23.5 55.5l-2 2q205 182 205 375q0 123 -88 203q-74 61 -164 61q-111 0 -213 -100q-102 102 -213 102q-90 0 -164 -61q-88 -80 -88 -205zM446 762q-16 143 101 160q121 14 131 -179l-88 -12q4 20 4 41q0 68 -43 64q-35 -4 -35 -56q0 -35 14 -82 l115 15l6 -76l-102 -8l20 -115l-92 -18zM623 510q0 43 43 43t43 -43t-43 -43t-43 43zM741 649q-16 143 101 160q123 17 131 -178l-88 -13q4 20 4 41q0 70 -43 64q-33 -4 -33 -55q0 -35 14 -82l113 14l6 -74l-102 -10l22 -115l-92 -18zM895 395q0 43 43 43t43 -43t-43 -43 t-43 43z" />
<glyph unicode="0" horiz-adv-x="1210" d="M219 668q0 274 160 475q154 190 352 190q199 0 344 -196q154 -208 154 -519q0 -317 -111 -468q-133 -184 -454 -175q-291 8 -383 209q-61 133 -62 484zM481 655q-2 -217 39 -305q47 -102 172 -106q131 -4 213 113.5t72 297.5q-10 170 -88 287q-74 109 -156 107 q-82 -14 -145 -80q-104 -109 -107 -314z" />
<glyph unicode="1" horiz-adv-x="604" d="M233 1214l392 166l-43 -1400l-306 -9z" />
<glyph unicode="2" d="M231 0q49 262 230 475q76 88 309 287q156 131 156 209q0 61 -72 129q-49 47 -98 47q-147 0 -240 -391l-285 106q41 205 214 377t356 172q115 0 207 -78q186 -158 186 -375t-190 -317q-231 -121 -338 -334l438 -65l-53 -348z" />
<glyph unicode="3" horiz-adv-x="1024" d="M88 1032q4 16 23 47q43 74 153 213q96 121 287 121q156 0 283 -82q139 -88 178 -233q12 -45 12 -90q0 -186 -199 -338q199 -62 199 -367q0 -274 -315 -377q-133 -43 -318 -47l6 275q33 -8 70 -9q164 0 192 150q2 14 3 29q0 160 -326 192l37 256q127 -12 211 64 q74 68 73 157q0 70 -49 105q-23 16 -47 16q-88 0 -172 -186z" />
<glyph unicode="4" horiz-adv-x="1042" d="M166 1231q0 108 6 196l313 23q-4 -422 17 -621q12 -127 73 -127q33 0 65 40t34 89q6 106 -29 488l287 4l63 -1343l-321 -60l33 553q-121 -80 -215 -80q-188 0 -269 307q-57 209 -57 531z" />
<glyph unicode="5" horiz-adv-x="991" d="M27 313l346 62q-18 -250 129 -258q102 8 102 123q0 74 -53 139q-63 74 -178 106q-190 55 -277 213q-66 121 -59 279q8 156 24 369l973 -123l-65 -379l-639 190q-20 -41 -21 -86q0 -164 254 -221l72 -16q117 -27 180 -146q59 -109 59 -258q0 -176 -77 -303 q-84 -143 -228 -154q-131 -2 -233 44q-246 104 -309 419z" />
<glyph unicode="6" horiz-adv-x="1112" d="M225 649q0 59 2 131q2 47 4 92q4 213 91 369q125 225 380 225q264 0 377 -237q72 -152 72 -371q0 -43 -2 -76l-336 -30q23 90 23 170q0 199 -148 202q-166 4 -166 -323q0 -86 10 -168l21 -90q170 135 305 135q193 0 281 -240q23 -78 22 -164q0 -319 -319 -389 q-78 -16 -148 -16q-469 0 -469 780zM604 274q0 -14 4 -28q31 -125 105 -133q55 -6 104 14q78 31 76 117q-2 197 -121 190q-55 -4 -108 -49q-59 -49 -60 -111z" />
<glyph unicode="7" d="M231 -72q47 375 359 783q129 170 301 333q-322 -45 -645 -94l-15 383l887 25l62 -338q-381 -346 -527 -801q-61 -190 -69 -387z" />
<glyph unicode="8" horiz-adv-x="1179" d="M240 365q0 197 204 364q-176 31 -198 266q-23 231 231 308q104 33 256 30q295 14 402 -207q20 -45 20 -90q0 -145 -192 -297q208 -51 286 -207q31 -66 31 -139q0 -141 -99.5 -275t-222.5 -181q-78 -31 -182 -31q-170 0 -307 80q-160 94 -213 272q-16 53 -16 107z M537 1026q0 -10 2 -20q37 -172 157 -172q20 0 43 4q72 12 117 67q37 47 37 94q0 21 -8 31q-23 33 -66 61.5t-78 28.5q-205 0 -204 -94zM590 375q0 -27 12 -62q57 -152 174 -151q45 0 111 18q152 43 151 178q1 45 -22 76q-29 39 -90.5 70t-116.5 31q-29 0 -51 -11 q-96 -41 -109 -49q-59 -39 -59 -100z" />
<glyph unicode="9" horiz-adv-x="1112" d="M219 1077q0 319 320 389q78 16 147 17q469 0 469 -781q0 -59 -2 -131q-2 -47 -4 -92q-4 -213 -90 -368q-125 -225 -381 -226q-264 0 -377 238q-72 152 -72 371q0 43 2 75l336 31q-23 -90 -22 -170q0 -199 147 -203q166 -4 166 324q0 86 -10 168l-21 90 q-170 -135 -305 -135q-193 0 -280 239q-23 78 -23 164zM487 1108q2 -197 121 -190q55 4 111.5 51t56.5 108q0 15 -4 29q-31 125 -104 133q-55 6 -105 -12q-78 -33 -76 -119z" />
<glyph unicode=":" horiz-adv-x="702" d="M233 285q0 55 29 110q39 39 86 39q68 0 131 -82q45 102 113 103q32 0 63 -27q57 -43 58 -125q0 -166 -215 -303q-264 113 -265 285zM248 897q0 70 47 133q35 27 76 27q78 0 133 -103q55 84 114 84q41 1 72 -34q39 -43 39 -105q0 -78 -61 -151q-70 -86 -201 -144 q-219 137 -219 293z" />
<glyph unicode=";" horiz-adv-x="702" d="M233 285q0 55 29 110q39 39 86 39q68 0 131 -82q45 102 113 103q32 0 63 -27q57 -43 58 -125q0 -166 -215 -303q-264 113 -265 285zM248 897q0 70 47 133q35 27 76 27q78 0 133 -103q55 84 114 84q41 1 72 -34q39 -43 39 -105q0 -78 -61 -151q-70 -86 -201 -144 q-219 137 -219 293z" />
<glyph unicode="&#x3c;" d="M229 772q0 125 88 205q74 61 164 61q111 0 213 -102q102 100 213 100q90 0 164 -61q88 -80 88 -203q0 -193 -205 -375l2 -2q0 -33 -23.5 -55.5t-55.5 -22.5q-10 0 -19 2q-74 -53 -164 -100h-2q-231 121 -354 279q-109 139 -109 274zM385 762l31 -266l92 18l-21 115l103 8 l-6 76l-115 -15q-14 47 -14 82q0 51 34 56q43 4 43 -64q0 -20 -4 -41l88 12q-10 193 -131 179q-117 -16 -100 -160zM561 510q0 -43 43 -43t43 43t-43 43t-43 -43zM680 649l33 -266l92 18l-23 115l103 10l-6 74l-113 -14q-14 47 -14 82q0 51 32 55q43 6 43 -64q0 -20 -4 -41 l88 13q-8 195 -131 178q-117 -16 -100 -160zM834 395q0 -43 43 -43t43 43t-43 43t-43 -43z" />
<glyph unicode="=" horiz-adv-x="1288" d="M227 776q0 145 111 246q92 80 205 80q111 0 213 -84q102 82 211 82q115 0 207 -80q113 -102 112 -260q0 -221 -211 -393q-8 -47 -47 -79t-90 -32q-63 -45 -168 -98h-31q-248 129 -385 301q-127 162 -127 317zM291 772q0 -135 108 -274q123 -158 355 -279h2q90 47 164 100 q8 -2 18 -2q33 0 56.5 22.5t23.5 55.5l-2 2q205 182 205 375q0 123 -88 203q-74 61 -164 61q-111 0 -213 -100q-102 102 -213 102q-90 0 -164 -61q-88 -80 -88 -205zM446 762q-16 143 101 160q121 14 131 -179l-88 -12q4 20 4 41q0 68 -43 64q-35 -4 -35 -56q0 -35 14 -82 l115 15l6 -76l-102 -8l20 -115l-92 -18zM623 510q0 43 43 43t43 -43t-43 -43t-43 43zM741 649q-16 143 101 160q123 17 131 -178l-88 -13q4 20 4 41q0 70 -43 64q-33 -4 -33 -55q0 -35 14 -82l113 14l6 -74l-102 -10l22 -115l-92 -18zM895 395q0 43 43 43t43 -43t-43 -43 t-43 43z" />
<glyph unicode="&#x3e;" d="M229 772q0 125 88 205q74 61 164 61q111 0 213 -102q102 100 213 100q90 0 164 -61q88 -80 88 -203q0 -193 -205 -375l2 -2q0 -33 -23.5 -55.5t-55.5 -22.5q-10 0 -19 2q-74 -53 -164 -100h-2q-231 121 -354 279q-109 139 -109 274zM385 762l31 -266l92 18l-21 115l103 8 l-6 76l-115 -15q-14 47 -14 82q0 51 34 56q43 4 43 -64q0 -20 -4 -41l88 12q-10 193 -131 179q-117 -16 -100 -160zM561 510q0 -43 43 -43t43 43t-43 43t-43 -43zM680 649l33 -266l92 18l-23 115l103 10l-6 74l-113 -14q-14 47 -14 82q0 51 32 55q43 6 43 -64q0 -20 -4 -41 l88 13q-8 195 -131 178q-117 -16 -100 -160zM834 395q0 -43 43 -43t43 43t-43 43t-43 -43z" />
<glyph unicode="?" d="M193 1376l38 -344q322 98 508 98q166 0 166 -83q0 -143 -674 -164l50 -373l372 10l-6 117q162 23 279 65q276 106 276 308q0 221 -170 333q-143 96 -375 97q-199 0 -464 -64zM229 272q0 51 29 107q43 49 98 49q63 0 123 -76q41 90 107 90q47 0 96 -41t49 -104 q0 -147 -233 -297q-268 102 -269 272z" />
<glyph unicode="@" horiz-adv-x="2088" d="M696 934q0 125 88 205q74 59 164 59q111 0 213 -100q102 100 213 100q90 0 164 -61q88 -80 88 -203q0 -137 -110 -277q-121 -156 -355 -278h-2q-231 123 -354 278q-109 139 -109 277z" />
<glyph unicode="A" horiz-adv-x="985" d="M102 4l355 1368l366 17l344 -1381q-59 -10 -350 -37l-55 428l-275 -16l-57 -424zM508 606l229 2l-129 373z" />
<glyph unicode="B" horiz-adv-x="1034" d="M231 6v1333q168 43 330 43q471 0 471 -393q0 -150 -117 -231q252 -102 252 -383q0 -420 -542 -420q-193 0 -394 51zM512 827q23 -2 49 -2q242 1 248 146v9q0 124 -166 124q-59 0 -121 -14zM514 233q35 -4 76 -4q295 1 307 179q1 10 1 19q0 187 -307 187h-3q-35 0 -66 -2z " />
<glyph unicode="C" horiz-adv-x="1132" d="M137 561v40q0 224 41 388q109 428 438 428q330 0 486 -211q66 -88 90 -211l-352 -125q-11 305 -152 305q-7 0 -14 -1q-96 -10 -170 -185q-72 -166 -72 -358q0 -170 64 -273q70 -116 208 -116h7q141 2 247 321l314 -137q-63 -145 -142 -250q-188 -250 -419 -250 q-379 0 -514 318q-55 133 -60 317z" />
<glyph unicode="D" horiz-adv-x="1093" d="M231 0v1333q53 14 328 64q72 10 129 10q480 0 480 -709q0 -33 -1 -67q-10 -373 -293 -533q-188 -108 -474 -108h-5q-90 0 -164 10zM518 1042l4 -763q123 20 215 94q156 119 162 346v26q0 324 -240 324q-69 0 -141 -27z" />
<glyph unicode="E" horiz-adv-x="1122" d="M190 696q0 254 91 439q98 201 268 227q80 12 135 12q442 0 483 -608l-706 -74q-2 -20 -2 -47q0 -270 192 -270q55 0 127 26l-102 -415q-12 -1 -23 -1q-215 0 -344 214q-119 201 -119 497zM494 911l374 43q-35 171 -194 171q-10 0 -21 -1q-41 -4 -71 -24q-76 -53 -88 -189 z" />
<glyph unicode="F" horiz-adv-x="954" d="M231 0l5 1327l722 37q5 -92 19 -338l-475 -25l22 -131l250 27l8 -262l-243 -23l55 -573z" />
<glyph unicode="G" horiz-adv-x="1028" d="M207 985q0 55 18 107q102 284 336 284h2q113 0 244 -65l-6 96l354 23l-86 -1072q-12 -207 -94 -333q-114 -181 -352 -181h-23q-215 10 -309 199q-68 133 -68 344q0 100 15 188l329 -12q-49 -135 -49 -239q0 -160 125 -166h9q135 0 175 241q15 89 15 212v42v4 q-74 -57 -191 -57q-33 0 -69 4q-170 20 -277 135q-98 106 -98 246zM504 981q0 -12 2 -27q18 -114 147 -114h2h4q75 0 158 32l-12 287q-301 -16 -301 -178z" />
<glyph unicode="H" d="M152 1638l397 72l-41 -682q150 98 266 98q231 0 332 -378q70 -258 70 -656q-1 -133 -9 -242l-387 -26q1 104 1 196q0 371 -19 570q-16 155 -89 155h-1q-43 0 -81 -49t-42 -110q-1 -21 -1 -49q0 -155 36 -551l-353 -6z" />
<glyph unicode="I" horiz-adv-x="604" d="M231 1333l394 47l-43 -1400l-336 20z" />
<glyph unicode="J" horiz-adv-x="1112" d="M221 631l336 31q-18 -94 -18 -183q0 -248 153 -252h4q162 0 162 324q0 86 -10 168l-80 614l399 49l-18 -903q-4 -213 -90 -368q-125 -225 -381 -226q-322 0 -422 373q-36 136 -36 319q0 26 1 54z" />
<glyph unicode="K" horiz-adv-x="1224" d="M231 0v1333l377 25l-16 -543q307 10 307 356q0 104 -27 207l357 -80q-4 -432 -252 -624q299 -195 373 -842l-469 -6q14 109 14 225q0 496 -233 496q-33 0 -70 -10l-12 -537h-349z" />
<glyph unicode="L" horiz-adv-x="876" d="M231 0l13 1333l313 35l-12 -989l329 35l27 -383z" />
<glyph unicode="M" horiz-adv-x="1988" d="M231 1333l295 13l6 -78q134 118 311 118h3q207 0 338 -145q121 152 321 152q260 0 398 -228q97 -159 97 -329q0 -20 -1 -41q-12 -174 -12 -377q0 -234 14 -443l-424 -34q0 246 80 614q22 116 22 224v9q0 287 -151 287q-141 0 -180 -344q-35 -313 -35 -829l-412 53 l115 598q14 100 14 203q0 331 -157 331h-5q-213 -4 -303 -430q-4 -47 -4 -98q0 -125 33 -323q33 -205 35 -252l-361 -47z" />
<glyph unicode="N" horiz-adv-x="1361" d="M231 1333l297 45l9 -106q132 114 306 114h3q258 0 395 -223q102 -166 107 -366q4 -179 24 -867l-360 -36l4 659v27q0 507 -145 507h-3q-172 -4 -243 -182q-45 -109 -45 -260v-17q0 -207 45 -646l-334 -50z" />
<glyph unicode="O" horiz-adv-x="1210" d="M197 764q0 233 112 403q127 193 348 193q197 0 355 -148q170 -162 219 -438q26 -145 26 -256v-8q0 -475 -466 -530q-41 -4 -80 -5q-227 0 -353 183q-96 143 -147 442q-14 84 -14 164zM502 748q0 -51 10 -107q31 -193 78 -270q49 -84 141 -84q16 0 37 2q92 14 149.5 96 t57.5 205q0 63 -17 129q-37 162 -131 258q-71 73 -133 73q-9 0 -18 -1q-174 -68 -174 -301zM553 678q0 39 20 82q28 28 62 28h2q51 0 96 -61q33 76 82 76q27 -1 47 -19q43 -33 43 -92q0 -123 -157 -223q-195 82 -195 209z" />
<glyph unicode="P" horiz-adv-x="1200" d="M236 1374q174 29 321 29q420 0 598 -225q74 -94 94 -226q8 -51 8 -116q0 -244 -114 -402q-158 -219 -512 -219q-31 0 -64 2l19 -287l-348 -18zM549 1118l2 -624q12 0 24 -1q260 0 363 169q45 74 53 178q1 10 1 20q0 86 -62 156q-94 106 -305 106q-37 0 -76 -4z" />
<glyph unicode="Q" horiz-adv-x="1210" d="M219 641q0 350 62 483q92 201 383 209q17 1 33 1q296 0 421 -175q111 -152 111 -469q0 -393 -228 -602l3 -6q82 -156 213 -156q102 0 204 84l133 -284l-165 -68q-84 -33 -162 -33q-262 0 -463 352q-16 -2 -33 -2q-199 0 -352 191q-160 201 -160 475zM481 653 q2 -236 137 -340q-33 100 -51 185l240 73q10 -41 74 -217q86 119 96 299q1 20 1 38q0 155 -73 260q-79 114 -204 114h-9q-125 -4 -172 -107q-39 -84 -39 -285v-20z" />
<glyph unicode="R" horiz-adv-x="1089" d="M195 -10v1362q221 53 391 53q326 0 438 -193q47 -80 47 -190q1 -18 1 -35q0 -243 -161 -348q143 -96 213 -252q97 -215 101 -604l-361 -25q12 111 13 230q0 544 -274 544h-1q-37 0 -78 -10l25 -510zM479 1165l17 -387q49 -10 92 -10q241 0 241 266v13q-14 122 -258 122 h-4q-41 0 -88 -4z" />
<glyph unicode="S" horiz-adv-x="1021" d="M27 193l243 278q100 -301 301 -311h9q74 0 118 30q47 32 47 84q0 66 -73 127q-84 72 -238 113q-115 31 -180 152q-57 111 -57 258q0 174 75 301q86 139 228 149h11q124 0 222 -43q246 -105 309 -420l-346 -61q2 27 2 52q0 199 -131 206q-102 -8 -102 -123q0 -74 53 -139 q63 -74 178 -107q190 -55 277 -213q60 -109 60 -248q0 -15 -1 -30q-6 -137 -137 -264q-142 -134 -322 -134h-8q-221 6 -538 343z" />
<glyph unicode="T" horiz-adv-x="1085" d="M186 952l7 412l952 -8l-19 -361l-297 21l-20 -1057l-383 -14l59 1048z" />
<glyph unicode="U" horiz-adv-x="1179" d="M164 893q0 225 33 438l376 8q-63 -358 -63 -606q0 -410 174 -410q6 0 12 1q172 12 172 383q0 268 -86 663l414 35q18 -182 18 -385q0 -432 -88 -701q-120 -374 -399 -374q-317 0 -459 321q-104 238 -104 627z" />
<glyph unicode="V" horiz-adv-x="1105" d="M190 1321l359 29q37 -209 131 -768l156 667l331 -37l-358 -1212l-291 -23z" />
<glyph unicode="W" horiz-adv-x="1718" d="M150 1321l358 29q37 -209 131 -768l156 667l331 -37l185 -518l137 715l383 -27l-311 -1372l-310 15q-49 131 -237 665l-205 -690l-291 -23z" />
<glyph unicode="X" horiz-adv-x="1441" d="M231 1229l377 137l252 -356l213 411l389 -88l-319 -567l469 -549l-305 -252l-406 494l-297 -572l-346 80l399 713z" />
<glyph unicode="Y" horiz-adv-x="1112" d="M133 1145q0 78 8 143l332 25q-22 -118 -22 -232v-10q0 -125 28 -205q25 -69 109 -69h2q113 0 237 84l-59 452l344 74q49 -612 49 -880v-38q-2 -209 -96 -374q-131 -229 -387 -230q-375 0 -447 494l308 78q6 -225 153 -230h4q162 0 162 324q0 37 -2 74q-190 -92 -334 -93 q-225 0 -321 224q-68 154 -68 389z" />
<glyph unicode="Z" horiz-adv-x="1187" d="M178 1333l1016 31l59 -438l-538 -627l411 8v-342l-837 -18l-72 329l746 771l-750 -54z" />
<glyph unicode="[" horiz-adv-x="1288" d="M227 776q0 145 111 246q92 80 205 80q111 0 213 -84q102 82 211 82q115 0 207 -80q113 -102 112 -260q0 -221 -211 -393q-8 -47 -47 -79t-90 -32q-63 -45 -168 -98h-31q-248 129 -385 301q-127 162 -127 317zM291 772q0 -135 108 -274q123 -158 355 -279h2q90 47 164 100 q8 -2 18 -2q33 0 56.5 22.5t23.5 55.5l-2 2q205 182 205 375q0 123 -88 203q-74 61 -164 61q-111 0 -213 -100q-102 102 -213 102q-90 0 -164 -61q-88 -80 -88 -205zM446 762q-16 143 101 160q121 14 131 -179l-88 -12q4 20 4 41q0 68 -43 64q-35 -4 -35 -56q0 -35 14 -82 l115 15l6 -76l-102 -8l20 -115l-92 -18zM623 510q0 43 43 43t43 -43t-43 -43t-43 43zM741 649q-16 143 101 160q123 17 131 -178l-88 -13q4 20 4 41q0 70 -43 64q-33 -4 -33 -55q0 -35 14 -82l113 14l6 -74l-102 -10l22 -115l-92 -18zM895 395q0 43 43 43t43 -43t-43 -43 t-43 43z" />
<glyph unicode="\" d="M229 772q0 125 88 205q74 61 164 61q111 0 213 -102q102 100 213 100q90 0 164 -61q88 -80 88 -203q0 -193 -205 -375l2 -2q0 -33 -23.5 -55.5t-55.5 -22.5q-10 0 -19 2q-74 -53 -164 -100h-2q-231 121 -354 279q-109 139 -109 274zM385 762l31 -266l92 18l-21 115l103 8 l-6 76l-115 -15q-14 47 -14 82q0 51 34 56q43 4 43 -64q0 -20 -4 -41l88 12q-10 193 -131 179q-117 -16 -100 -160zM561 510q0 -43 43 -43t43 43t-43 43t-43 -43zM680 649l33 -266l92 18l-23 115l103 10l-6 74l-113 -14q-14 47 -14 82q0 51 32 55q43 6 43 -64q0 -20 -4 -41 l88 13q-8 195 -131 178q-117 -16 -100 -160zM834 395q0 -43 43 -43t43 43t-43 43t-43 -43z" />
<glyph unicode="]" horiz-adv-x="1288" d="M227 776q0 145 111 246q92 80 205 80q111 0 213 -84q102 82 211 82q115 0 207 -80q113 -102 112 -260q0 -221 -211 -393q-8 -47 -47 -79t-90 -32q-63 -45 -168 -98h-31q-248 129 -385 301q-127 162 -127 317zM291 772q0 -135 108 -274q123 -158 355 -279h2q90 47 164 100 q8 -2 18 -2q33 0 56.5 22.5t23.5 55.5l-2 2q205 182 205 375q0 123 -88 203q-74 61 -164 61q-111 0 -213 -100q-102 102 -213 102q-90 0 -164 -61q-88 -80 -88 -205zM446 762q-16 143 101 160q121 14 131 -179l-88 -12q4 20 4 41q0 68 -43 64q-35 -4 -35 -56q0 -35 14 -82 l115 15l6 -76l-102 -8l20 -115l-92 -18zM623 510q0 43 43 43t43 -43t-43 -43t-43 43zM741 649q-16 143 101 160q123 17 131 -178l-88 -13q4 20 4 41q0 70 -43 64q-33 -4 -33 -55q0 -35 14 -82l113 14l6 -74l-102 -10l22 -115l-92 -18zM895 395q0 43 43 43t43 -43t-43 -43 t-43 43z" />
<glyph unicode="^" d="M229 772q0 125 88 205q74 61 164 61q111 0 213 -102q102 100 213 100q90 0 164 -61q88 -80 88 -203q0 -193 -205 -375l2 -2q0 -33 -23.5 -55.5t-55.5 -22.5q-10 0 -19 2q-74 -53 -164 -100h-2q-231 121 -354 279q-109 139 -109 274zM385 762l31 -266l92 18l-21 115l103 8 l-6 76l-115 -15q-14 47 -14 82q0 51 34 56q43 4 43 -64q0 -20 -4 -41l88 12q-10 193 -131 179q-117 -16 -100 -160zM561 510q0 -43 43 -43t43 43t-43 43t-43 -43zM680 649l33 -266l92 18l-23 115l103 10l-6 74l-113 -14q-14 47 -14 82q0 51 32 55q43 6 43 -64q0 -20 -4 -41 l88 13q-8 195 -131 178q-117 -16 -100 -160zM834 395q0 -43 43 -43t43 43t-43 43t-43 -43z" />
<glyph unicode="_" horiz-adv-x="1288" d="M227 776q0 145 111 246q92 80 205 80q111 0 213 -84q102 82 211 82q115 0 207 -80q113 -102 112 -260q0 -221 -211 -393q-8 -47 -47 -79t-90 -32q-63 -45 -168 -98h-31q-248 129 -385 301q-127 162 -127 317zM291 772q0 -135 108 -274q123 -158 355 -279h2q90 47 164 100 q8 -2 18 -2q33 0 56.5 22.5t23.5 55.5l-2 2q205 182 205 375q0 123 -88 203q-74 61 -164 61q-111 0 -213 -100q-102 102 -213 102q-90 0 -164 -61q-88 -80 -88 -205zM446 762q-16 143 101 160q121 14 131 -179l-88 -12q4 20 4 41q0 68 -43 64q-35 -4 -35 -56q0 -35 14 -82 l115 15l6 -76l-102 -8l20 -115l-92 -18zM623 510q0 43 43 43t43 -43t-43 -43t-43 43zM741 649q-16 143 101 160q123 17 131 -178l-88 -13q4 20 4 41q0 70 -43 64q-33 -4 -33 -55q0 -35 14 -82l113 14l6 -74l-102 -10l22 -115l-92 -18zM895 395q0 43 43 43t43 -43t-43 -43 t-43 43z" />
<glyph unicode="`" horiz-adv-x="2088" d="M696 934q0 125 88 205q74 59 164 59q111 0 213 -100q102 100 213 100q90 0 164 -61q88 -80 88 -203q0 -137 -110 -277q-121 -156 -355 -278h-2q-231 123 -354 278q-109 139 -109 277z" />
<glyph unicode="a" horiz-adv-x="1112" d="M90 410q29 309 467 309q143 0 301 -33v35q0 119 -24 199q-40 120 -137 120h-5q-153 -4 -153 -249v-9l-316 27q18 227 103 369q116 204 350 204h2q256 0 381 -225q86 -156 89 -369l19 -903l-399 49l14 109q-25 -1 -49 -1q-247 0 -407 56q-237 83 -237 281q0 15 1 31z M373 399v-7q0 -126 225 -126q102 0 221 25l12 182q-139 29 -251 29q-203 0 -207 -103z" />
<glyph unicode="b" horiz-adv-x="1069" d="M211 10l6 1641l313 -17l-14 -368q31 2 60 2q367 0 505 -314q69 -154 69 -319q0 -21 -1 -43q1 -17 1 -34q0 -141 -75 -275q-166 -291 -622 -291q-113 0 -242 18zM492 236q29 -2 57 -3q233 0 311 195q31 77 31 184v13q-6 117 -45 198q-88 189 -310 189h-18z" />
<glyph unicode="c" horiz-adv-x="1132" d="M145 565q0 297 158 533q166 248 395 254q8 0 17 1q280 0 401 -263q51 -113 68 -273l-275 -72q-17 306 -184 306q-12 0 -25 -2q-131 -16 -194 -232q-39 -133 -39 -240v-20q6 -211 231 -211q176 0 469 133l113 -336q-391 -168 -666 -168q-197 0 -288 97q-180 186 -181 493z " />
<glyph unicode="d" horiz-adv-x="1148" d="M154 532q0 252 114 416q159 228 517 227q29 0 59 -1l-17 436l349 20v-1614q-174 -30 -322 -30h-10q-412 0 -588 213q-74 90 -94 213q-8 53 -8 120zM420 551q45 -285 395 -285q37 0 76 4l-29 627h-24q-262 0 -365 -168q-45 -74 -53 -178z" />
<glyph unicode="e" horiz-adv-x="1112" d="M117 610q0 94 14 174q31 150 84 260q133 264 367 289q45 4 86 4q348 0 477 -336q53 -139 59 -335l-801 -70q20 -326 259 -326q66 0 145 29q109 39 166 172l248 -127q-215 -356 -562 -356q-59 0 -118 12q-242 45 -348 252q-76 147 -76 358zM442 821l404 45 q-39 184 -182 185q-15 0 -31 -2q-170 -25 -191 -228z" />
<glyph unicode="f" horiz-adv-x="991" d="M195 991q0 424 378 473q31 4 60 4q264 0 371 -331q43 -137 53 -330l-328 -45q14 78 14 156q0 232 -137 232q-11 0 -22 -1q-123 -14 -123 -205q0 -131 53 -305l418 53l22 -274l-379 -33l82 -422l-340 -67l-116 981q-6 59 -6 114z" />
<glyph unicode="g" horiz-adv-x="1028" d="M137 846q0 27 4 53q59 344 355 344q86 0 178 -26l-21 92l344 84l101 -1069q6 -59 6 -115q0 -424 -379 -473q-31 -4 -59 -4q-264 0 -371 331q-43 137 -53 330l327 45q-14 -78 -14 -155q0 -233 139 -233q10 0 21 1q139 16 139 262q0 121 -31 260l-2 7q-76 -88 -246 -99 q-17 -1 -34 -1q-166 0 -283 106q-121 109 -121 260zM432 862q0 -25 8 -49q31 -92 127 -92h3q85 0 192 65l-62 279q-268 -61 -268 -203z" />
<glyph unicode="h" d="M152 1638l397 72l-41 -682q150 98 266 98q231 0 332 -378q70 -258 70 -656q-1 -133 -9 -242l-387 -26q1 104 1 196q0 371 -19 570q-16 155 -89 155h-1q-43 0 -81 -49t-42 -110q-1 -21 -1 -49q0 -155 36 -551l-353 -6z" />
<glyph unicode="i" horiz-adv-x="702" d="M197 1589q0 55 30 111q37 39 86 39q68 0 131 -82q45 102 111 102h2q34 0 64 -26q57 -43 57 -125q0 -166 -215 -303q-266 113 -266 284zM223 14l41 1170l377 49l68 -1235z" />
<glyph unicode="j" horiz-adv-x="1153" d="M188 324l347 82q-4 -49 -5 -109q0 -377 183 -381h4q157 0 157 320q0 98 -12 192l-100 690q178 29 358 60q23 -184 45 -535q19 -302 19 -419v-21q-4 -215 -99 -389q-130 -242 -383 -242h-4q-303 2 -436 377q-57 158 -74 375zM662 1522q0 37 10 73q37 43 86 43 q61 0 123 -69q39 104 104 104q30 0 57 -20q63 -41 64 -127q0 -154 -184 -291q-260 94 -260 287z" />
<glyph unicode="k" horiz-adv-x="1224" d="M231 0v1333l377 25l-16 -543q307 10 307 356q0 49 -6 103l330 -92q-33 -344 -246 -508q164 -106 242 -283q107 -247 107 -712q0 -44 -1 -89l-471 -32q49 274 49 510q0 483 -229 483q-39 0 -82 -14l-12 -537h-349z" />
<glyph unicode="l" horiz-adv-x="604" d="M231 1333l394 47l-43 -1400l-336 20z" />
<glyph unicode="m" horiz-adv-x="1988" d="M231 1333l295 13l6 -78q134 118 311 118h3q207 0 338 -145q121 152 321 152q260 0 398 -228q97 -159 97 -329q0 -20 -1 -41q-12 -174 -12 -377q0 -234 14 -443l-424 -34q0 246 80 614q22 116 22 224v9q0 287 -151 287q-141 0 -180 -344q-35 -313 -35 -829l-412 53 l115 598q14 100 14 203q0 331 -157 331h-5q-213 -4 -303 -430q-4 -47 -4 -98q0 -125 33 -323q33 -205 35 -252l-361 -47z" />
<glyph unicode="n" horiz-adv-x="1361" d="M231 1333l297 45l9 -106q132 114 306 114h3q258 0 395 -223q102 -166 107 -366q4 -179 24 -867l-360 -36l4 659v27q0 507 -145 507h-3q-172 -4 -243 -182q-45 -109 -45 -260v-17q0 -207 45 -646l-334 -50z" />
<glyph unicode="o" horiz-adv-x="1210" d="M199 668q0 283 163 487q160 199 369 199q211 0 361 -205q157 -214 157 -531q0 -324 -114 -481q-132 -183 -436 -183q-17 0 -35 1q-303 10 -402 221q-63 137 -63 492zM506 655q0 -211 39 -297t147 -90q4 0 8 -1q112 1 186 107q67 96 67 237q0 20 -1 42q-10 164 -84 273 q-65 96 -133 98q-74 -16 -131 -76q-96 -100 -98 -293z" />
<glyph unicode="p" horiz-adv-x="1200" d="M178 1343q238 57 428 58q352 0 518 -191q68 -80 95 -190q18 -86 18 -186q0 -240 -115 -394q-162 -219 -532 -227l39 -285l-346 -43zM481 1110l72 -621q281 10 377 193q39 76 41 180q-61 258 -367 258q-57 0 -123 -10z" />
<glyph unicode="q" horiz-adv-x="1212" d="M203 895q27 127 104 217q186 217 604 217q152 0 330 -31l-53 -1511q61 25 133 25q151 -1 305 -99l-459 -344l-311 74l29 692q-30 -2 -60 -2q-356 0 -516 227q-114 163 -114 412q0 72 8 123zM461 758q8 -104 53 -178q104 -168 365 -168h24l29 626q-39 4 -76 4 q-350 0 -395 -284z" />
<glyph unicode="r" d="M231 1333l310 56l12 -105q86 70 201 102q41 12 82 13q213 0 352 -338q57 -141 94 -338l-371 -96q-43 452 -141 452q-94 0 -137 -48t-43 -163q0 -162 31 -868h-375z" />
<glyph unicode="s" horiz-adv-x="1021" d="M201 401l350 37q-8 -45 -8 -82q0 -172 119 -184q51 0 80.5 37t29.5 90q0 72 -49 137q-57 74 -166 113q-303 111 -303 444q0 35 4 68q14 139 156 256q134 110 291 111q23 0 47 -3q219 -20 512 -378l-263 -261q-78 307 -278 332q-17 2 -32 2q-60 0 -99 -26q-49 -32 -49 -86 q0 -63 67 -129q78 -74 226 -123q102 -37 159 -146q51 -100 52 -235q0 -184 -89 -322q-95 -151 -245 -151h-2q-131 8 -232 57q-237 123 -278 442z" />
<glyph unicode="t" horiz-adv-x="1112" d="M221 1382l404 -32l-31 -228l551 -26l-33 -322l-555 72l-16 -127q-10 -82 -11 -168q0 -324 162 -324h4q154 4 154 252q0 88 -19 183l336 -31q1 -28 1 -56q0 -182 -35 -317q-100 -373 -422 -373q-256 0 -381 226q-86 156 -90 368z" />
<glyph unicode="u" horiz-adv-x="1179" d="M166 670q0 322 92 678l375 -31q-135 -467 -135 -739q0 -279 149 -283h4q219 0 219 584q0 203 -26 448l413 -10q-10 -426 -73 -725q-146 -680 -504 -680q-20 0 -41 2q-473 51 -473 756z" />
<glyph unicode="v" horiz-adv-x="1105" d="M244 1362l358 -2q18 -211 64 -776l215 651l325 -66l-463 -1177l-290 4z" />
<glyph unicode="w" horiz-adv-x="1718" d="M184 1378l361 11q27 -211 90 -775l190 658l330 -53l158 -529l174 707l381 -45l-383 -1354l-307 29q-43 135 -205 678l-240 -678l-291 -9z" />
<glyph unicode="x" horiz-adv-x="1441" d="M231 217l306 -252l405 494l297 -572l346 80l-399 713l426 549l-377 137l-252 -356l-213 411l-389 -88l319 -567z" />
<glyph unicode="y" horiz-adv-x="1112" d="M227 1358l332 -17q-57 -193 -57 -342q0 -57 10 -102q18 -84 129 -84q106 0 217 55l-4 457l352 31q-8 -190 -18 -352q-22 -390 -45 -564q-27 -190 -127 -340q-138 -204 -363 -204h-2q-31 0 -61 4q-373 45 -383 544l313 39q-2 -27 -2 -51q0 -176 127 -194q12 -2 24 -2 q164 0 187 376q-160 -55 -283 -55q-380 0 -380 491q0 155 34 310z" />
<glyph unicode="z" horiz-adv-x="1187" d="M174 309l811 703l-752 12l-6 342l1016 -57l21 -443l-592 -577l411 -27l-30 -342l-836 55z" />
<glyph unicode="{" d="M229 772q0 125 88 205q74 61 164 61q111 0 213 -102q102 100 213 100q90 0 164 -61q88 -80 88 -203q0 -193 -205 -375l2 -2q0 -33 -23.5 -55.5t-55.5 -22.5q-10 0 -19 2q-74 -53 -164 -100h-2q-231 121 -354 279q-109 139 -109 274zM385 762l31 -266l92 18l-21 115l103 8 l-6 76l-115 -15q-14 47 -14 82q0 51 34 56q43 4 43 -64q0 -20 -4 -41l88 12q-10 193 -131 179q-117 -16 -100 -160zM561 510q0 -43 43 -43t43 43t-43 43t-43 -43zM680 649l33 -266l92 18l-23 115l103 10l-6 74l-113 -14q-14 47 -14 82q0 51 32 55q43 6 43 -64q0 -20 -4 -41 l88 13q-8 195 -131 178q-117 -16 -100 -160zM834 395q0 -43 43 -43t43 43t-43 43t-43 -43z" />
<glyph unicode="|" horiz-adv-x="1288" d="M227 776q0 145 111 246q92 80 205 80q111 0 213 -84q102 82 211 82q115 0 207 -80q113 -102 112 -260q0 -221 -211 -393q-8 -47 -47 -79t-90 -32q-63 -45 -168 -98h-31q-248 129 -385 301q-127 162 -127 317zM291 772q0 -135 108 -274q123 -158 355 -279h2q90 47 164 100 q8 -2 18 -2q33 0 56.5 22.5t23.5 55.5l-2 2q205 182 205 375q0 123 -88 203q-74 61 -164 61q-111 0 -213 -100q-102 102 -213 102q-90 0 -164 -61q-88 -80 -88 -205zM446 762q-16 143 101 160q121 14 131 -179l-88 -12q4 20 4 41q0 68 -43 64q-35 -4 -35 -56q0 -35 14 -82 l115 15l6 -76l-102 -8l20 -115l-92 -18zM623 510q0 43 43 43t43 -43t-43 -43t-43 43zM741 649q-16 143 101 160q123 17 131 -178l-88 -13q4 20 4 41q0 70 -43 64q-33 -4 -33 -55q0 -35 14 -82l113 14l6 -74l-102 -10l22 -115l-92 -18zM895 395q0 43 43 43t43 -43t-43 -43 t-43 43z" />
<glyph unicode="}" d="M229 772q0 125 88 205q74 61 164 61q111 0 213 -102q102 100 213 100q90 0 164 -61q88 -80 88 -203q0 -193 -205 -375l2 -2q0 -33 -23.5 -55.5t-55.5 -22.5q-10 0 -19 2q-74 -53 -164 -100h-2q-231 121 -354 279q-109 139 -109 274zM385 762l31 -266l92 18l-21 115l103 8 l-6 76l-115 -15q-14 47 -14 82q0 51 34 56q43 4 43 -64q0 -20 -4 -41l88 12q-10 193 -131 179q-117 -16 -100 -160zM561 510q0 -43 43 -43t43 43t-43 43t-43 -43zM680 649l33 -266l92 18l-23 115l103 10l-6 74l-113 -14q-14 47 -14 82q0 51 32 55q43 6 43 -64q0 -20 -4 -41 l88 13q-8 195 -131 178q-117 -16 -100 -160zM834 395q0 -43 43 -43t43 43t-43 43t-43 -43z" />
<glyph unicode="~" horiz-adv-x="1288" d="M227 776q0 145 111 246q92 80 205 80q111 0 213 -84q102 82 211 82q115 0 207 -80q113 -102 112 -260q0 -221 -211 -393q-8 -47 -47 -79t-90 -32q-63 -45 -168 -98h-31q-248 129 -385 301q-127 162 -127 317zM291 772q0 -135 108 -274q123 -158 355 -279h2q90 47 164 100 q8 -2 18 -2q33 0 56.5 22.5t23.5 55.5l-2 2q205 182 205 375q0 123 -88 203q-74 61 -164 61q-111 0 -213 -100q-102 102 -213 102q-90 0 -164 -61q-88 -80 -88 -205zM446 762q-16 143 101 160q121 14 131 -179l-88 -12q4 20 4 41q0 68 -43 64q-35 -4 -35 -56q0 -35 14 -82 l115 15l6 -76l-102 -8l20 -115l-92 -18zM623 510q0 43 43 43t43 -43t-43 -43t-43 43zM741 649q-16 143 101 160q123 17 131 -178l-88 -13q4 20 4 41q0 70 -43 64q-33 -4 -33 -55q0 -35 14 -82l113 14l6 -74l-102 -10l22 -115l-92 -18zM895 395q0 43 43 43t43 -43t-43 -43 t-43 43z" />
<glyph unicode="&#xad;" horiz-adv-x="655" d="M182 842q0 68 49 133q35 27 76 26q76 0 133 -102q53 84 113 84q41 0 74 -37q49 -57 49 -121q0 -158 -273 -276q-221 135 -221 293z" />
<glyph unicode="&#x2000;" horiz-adv-x="879" />
<glyph unicode="&#x2001;" horiz-adv-x="1759" />
<glyph unicode="&#x2002;" horiz-adv-x="879" />
<glyph unicode="&#x2003;" horiz-adv-x="1759" />
<glyph unicode="&#x2004;" horiz-adv-x="586" />
<glyph unicode="&#x2005;" horiz-adv-x="439" />
<glyph unicode="&#x2006;" horiz-adv-x="293" />
<glyph unicode="&#x2007;" horiz-adv-x="293" />
<glyph unicode="&#x2008;" horiz-adv-x="219" />
<glyph unicode="&#x2009;" horiz-adv-x="351" />
<glyph unicode="&#x200a;" horiz-adv-x="97" />
<glyph unicode="&#x2010;" horiz-adv-x="655" d="M182 842q0 68 49 133q35 27 76 26q76 0 133 -102q53 84 113 84q41 0 74 -37q49 -57 49 -121q0 -158 -273 -276q-221 135 -221 293z" />
<glyph unicode="&#x2011;" horiz-adv-x="655" d="M182 842q0 68 49 133q35 27 76 26q76 0 133 -102q53 84 113 84q41 0 74 -37q49 -57 49 -121q0 -158 -273 -276q-221 135 -221 293z" />
<glyph unicode="&#x2012;" horiz-adv-x="655" d="M182 842q0 68 49 133q35 27 76 26q76 0 133 -102q53 84 113 84q41 0 74 -37q49 -57 49 -121q0 -158 -273 -276q-221 135 -221 293z" />
<glyph unicode="&#x2013;" horiz-adv-x="1185" d="M182 842q0 68 102 133q72 27 157 26q158 0 276 -102q110 84 234 84q85 0 153 -37q102 -57 102 -121q0 -158 -566 -276q-458 135 -458 293z" />
<glyph unicode="&#x2014;" horiz-adv-x="2209" d="M182 842q0 68 203 133q145 27 315 26q315 0 552 -102q219 84 468 84q170 0 307 -37q203 -57 203 -121q0 -158 -1132 -276q-916 135 -916 293z" />
<glyph unicode="&#x202f;" horiz-adv-x="351" />
<glyph unicode="&#x205f;" horiz-adv-x="439" />
<glyph unicode="&#xe000;" horiz-adv-x="1423" d="M0 0v1423h1423v-1423h-1423z" />
</font>
</defs>
</svg>
